<?xml version="1.0" encoding="UTF-8"?>
<svg id="Capa_2" data-name="Capa 2" xmlns="http://www.w3.org/2000/svg" viewBox="0 0 140.63 95.36">
  <defs>
    <style>
      .cls-1 {
        fill: #0072bb;
      }

      .cls-1, .cls-2 {
        stroke-width: 0px;
      }

      .cls-2 {
        fill: #ff571f;
      }
    </style>
  </defs>
  <g id="_1" data-name="1">
    <g>
      <path class="cls-1" d="M18.57,72.36c3.02,0,15.31-.02,18.27-.02s5.46-.41,7.22-1.87c1.76-1.45,2.64-3.47,2.64-6.05,0-2.16-.7-3.95-2.1-5.37-1.4-1.41-3.12-2.58-5.16-3.5-2.04-.91-4.94-1.95-8.7-3.12-5.44-1.75-9.88-3.5-13.32-5.24-3.44-1.75-6.4-4.33-8.88-7.74-2.48-3.41-3.72-7.86-3.72-13.36,0-8.16,2.84-14.54,8.52-19.16C19.02,2.31,26.42,0,35.54,0s16.76,2.31,22.44,6.93c5.68,4.62,8.72,11.05,9.12,19.29h-22.2c-.16-2.83-1.16-5.06-3-6.68-1.84-1.62-4.2-2.43-7.08-2.43-2.48,0-4.48.69-6,2.06-1.52,1.37-2.28,3.35-2.28,5.93,0,2.83,1.28,5.04,3.84,6.62,2.56,1.58,6.56,3.29,12,5.12,5.44,1.92,9.86,3.75,13.26,5.49,3.4,1.75,6.34,4.29,8.82,7.62,2.48,3.33,3.72,7.62,3.72,12.86s-1.22,9.53-3.66,13.61c-2.44,4.08-5.98,7.32-10.62,9.74-4.64,2.41-10.12,3.62-16.44,3.62h-18.9"/>
      <path class="cls-2" d="M121.66,72.8v17.4h-10.44c-7.44,0-13.24-1.82-17.4-5.46-4.16-3.64-6.24-9.58-6.24-17.82v-26.64h-8.16v-17.04h8.16V.44h20.52v22.8h13.44v17.04h-13.44v26.88c0,2,.48,3.44,1.44,4.32.96.88,2.56,1.32,4.8,1.32h7.32Z"/>
      <polygon class="cls-2" points="140.63 81.5 116.63 67.64 116.63 95.36 140.63 81.5"/>
      <rect class="cls-2" x="116.66" y="72.8" width="5" height="17.4"/>
      <polygon class="cls-1" points="0 81.06 24 94.92 24 67.2 0 81.06"/>
    </g>
  </g>
</svg>