<?xml version="1.0" encoding="UTF-8"?>
<svg id="Capa_2" data-name="Capa 2" xmlns="http://www.w3.org/2000/svg" viewBox="0 0 408.63 99.92">
  <defs>
    <style>
      .cls-1 {
        fill: #0072bb;
      }

      .cls-1, .cls-2 {
        stroke-width: 0px;
      }

      .cls-2 {
        fill: #ff571f;
      }
    </style>
  </defs>
  <g id="_1" data-name="1">
    <g>
      <path class="cls-1" d="M18.57,76.92c3.02,0,15.31-.02,18.27-.02s5.46-.41,7.22-1.87c1.76-1.45,2.64-3.47,2.64-6.05,0-2.16-.7-3.95-2.1-5.37-1.4-1.41-3.12-2.58-5.16-3.5-2.04-.91-4.94-1.95-8.7-3.12-5.44-1.75-9.88-3.5-13.32-5.24-3.44-1.75-6.4-4.33-8.88-7.74-2.48-3.41-3.72-7.86-3.72-13.36,0-8.16,2.84-14.54,8.52-19.16,5.68-4.62,13.08-6.93,22.2-6.93s16.76,2.31,22.44,6.93c5.68,4.62,8.72,11.05,9.12,19.29h-22.2c-.16-2.83-1.16-5.06-3-6.68-1.84-1.62-4.2-2.43-7.08-2.43-2.48,0-4.48.69-6,2.06-1.52,1.37-2.28,3.35-2.28,5.93,0,2.83,1.28,5.04,3.84,6.62,2.56,1.58,6.56,3.29,12,5.12,5.44,1.92,9.86,3.75,13.26,5.49,3.4,1.75,6.34,4.29,8.82,7.62,2.48,3.33,3.72,7.62,3.72,12.86s-1.22,9.53-3.66,13.61c-2.44,4.08-5.98,7.32-10.62,9.74-4.64,2.41-10.12,3.62-16.44,3.62h-18.9"/>
      <path class="cls-1" d="M143.42,65.24h-46.44c.32,4.16,1.66,7.34,4.02,9.54,2.36,2.2,5.26,3.3,8.7,3.3,5.12,0,8.68-2.16,10.68-6.48h21.84c-1.12,4.4-3.14,8.36-6.06,11.88-2.92,3.52-6.58,6.28-10.98,8.28-4.4,2-9.32,3-14.76,3-6.56,0-12.4-1.4-17.52-4.2-5.12-2.8-9.12-6.8-12-12-2.88-5.2-4.32-11.28-4.32-18.24s1.42-13.04,4.26-18.24c2.84-5.2,6.82-9.2,11.94-12,5.12-2.8,11-4.2,17.64-4.2s12.24,1.36,17.28,4.08c5.04,2.72,8.98,6.6,11.82,11.64,2.84,5.04,4.26,10.92,4.26,17.64,0,1.92-.12,3.92-.36,6ZM122.78,53.84c0-3.52-1.2-6.32-3.6-8.4-2.4-2.08-5.4-3.12-9-3.12s-6.34,1-8.7,3c-2.36,2-3.82,4.84-4.38,8.52h25.68Z"/>
      <path class="cls-1" d="M214.16,34.7c4.68,5.08,7.02,12.06,7.02,20.94v39.12h-20.4v-36.36c0-4.48-1.16-7.96-3.48-10.44-2.32-2.48-5.44-3.72-9.36-3.72s-7.04,1.24-9.36,3.72c-2.32,2.48-3.48,5.96-3.48,10.44v36.36h-20.52V27.8h20.52v8.88c2.08-2.96,4.88-5.3,8.4-7.02,3.52-1.72,7.48-2.58,11.88-2.58,7.84,0,14.1,2.54,18.78,7.62Z"/>
      <path class="cls-1" d="M235.46,42.08c2.6-5.2,6.14-9.2,10.62-12,4.48-2.8,9.48-4.2,15-4.2,4.4,0,8.42.92,12.06,2.76,3.64,1.84,6.5,4.32,8.58,7.44V5h20.52v89.7l-20.52.06v-10.56c-1.92,3.2-4.66,5.76-8.22,7.68-3.56,1.92-7.7,2.88-12.42,2.88-5.52,0-10.52-1.42-15-4.26-4.48-2.84-8.02-6.88-10.62-12.12-2.6-5.24-3.9-11.3-3.9-18.18s1.3-12.92,3.9-18.12ZM277.46,48.2c-2.84-2.96-6.3-4.44-10.38-4.44s-7.54,1.46-10.38,4.38c-2.84,2.92-4.26,6.94-4.26,12.06s1.42,9.18,4.26,12.18c2.84,3,6.3,4.5,10.38,4.5s7.54-1.48,10.38-4.44c2.84-2.96,4.26-7,4.26-12.12s-1.42-9.16-4.26-12.12Z"/>
      <path class="cls-2" d="M389.66,77.36v17.4h-10.44c-7.44,0-13.24-1.82-17.4-5.46-4.16-3.64-6.24-9.58-6.24-17.82v-26.64h-8.16v-17.04h8.16V5h20.52v22.8h13.44v17.04h-13.44v26.88c0,2,.48,3.44,1.44,4.32.96.88,2.56,1.32,4.8,1.32h7.32Z"/>
      <polygon class="cls-2" points="408.63 86.06 384.63 72.2 384.63 99.92 408.63 86.06"/>
      <rect class="cls-2" x="316.94" y="44.74" width="20.52" height="50.02"/>
      <path class="cls-2" d="M339.38,12.36c0,6.82-12.18,21.26-12.18,21.26,0,0-12.18-14.44-12.18-21.26s5.45-12.36,12.18-12.36,12.18,5.53,12.18,12.36Z"/>
      <rect class="cls-2" x="384.66" y="77.36" width="5" height="17.4"/>
      <polygon class="cls-1" points="0 85.62 24 99.48 24 71.76 0 85.62"/>
    </g>
  </g>
</svg>